<?xml version="1.0" encoding="utf-8"?><svg viewBox="0 0 161 122" xmlns="http://www.w3.org/2000/svg" xmlns:xlink="http://www.w3.org/1999/xlink"><style>:root>svg{display:none}:root>svg:target{display:block}</style><svg viewBox="0 0 161 122" id="border" xmlns="http://www.w3.org/2000/svg"><mask id="aa"><path fill-rule="evenodd" clip-rule="evenodd" d="M24 4h112c11.598 0 21 9.402 21 21v72c0 11.598-9.402 21-21 21H24c-8.975 0-16.635-5.63-19.64-13.552C4.036 103.6 3.247 103 2.34 103c-1.33 0-2.31 1.252-1.857 2.503C3.963 115.124 13.178 122 24 122h112c13.807 0 25-11.193 25-25V25c0-13.807-11.193-25-25-25H24C12.776 0 3.28 7.397.119 17.582-.263 18.814.706 20 1.997 20c.94 0 1.749-.647 2.042-1.54C6.788 10.063 14.686 4 23.999 4z"/></mask><path d="M.483 105.503l-3.761 1.361 3.761-1.361zm3.876-1.055l3.74-1.419-3.74 1.419zM136 0H24v8h112V0zm25 25c0-13.807-11.193-25-25-25v8c9.389 0 17 7.611 17 17h8zm0 72V25h-8v72h8zm-25 25c13.807 0 25-11.193 25-25h-8c0 9.389-7.611 17-17 17v8zm-112 0h112v-8H24v8zM.62 105.867C4.194 115.291 13.308 122 24 122v-8c-7.26 0-13.466-4.552-15.901-10.971l-7.48 2.838zm-3.898.997C.756 118.018 11.44 126 24 126v-8c-9.084 0-16.83-5.77-19.755-13.857l-7.523 2.721zM24 126h112v-8H24v8zm112 0c16.016 0 29-12.984 29-29h-8c0 11.598-9.402 21-21 21v8zm29-29V25h-8v72h8zm0-72c0-16.016-12.984-29-29-29v8c11.598 0 21 9.402 21 21h8zM136-4H24v8h112v-8zM24-4C10.974-4-.036 4.585-3.701 16.396l7.64 2.371C6.595 10.208 14.578 4 24 4v-8zm0 4C12.905 0 3.509 7.224.237 17.214l7.603 2.49C10.067 12.904 16.466 8 24 8V0zM1.997 24c2.847 0 5.07-1.933 5.843-4.296l-7.603-2.49C.426 16.64 1.031 16 1.997 16v8zm-5.698-7.604C-4.971 20.488-1.683 24 1.997 24v-8c1.098 0 2.447 1.14 1.942 2.767l-7.64-2.37zM2.34 99c-3.774 0-7.124 3.702-5.62 7.864l7.524-2.721a2.201 2.201 0 01-.31 2.051A2.008 2.008 0 012.34 107v-8zm5.758 4.029C7.249 100.79 5.076 99 2.341 99v8c-.922 0-1.515-.589-1.722-1.133l7.48-2.838z" mask="url(#aa)"/></svg></svg>