<svg width="73" height="73" fill="none" xmlns="http://www.w3.org/2000/svg"><g filter="url(#filter0_d)"><path d="M23.486 54.285l-1.334-1.881a.885.885 0 10-1.445 1.027l1.334 1.882a.885.885 0 001.235.21.888.888 0 00.21-1.238z" fill="url(#paint0_linear)"/><path d="M33.709 54.617l-1.452-6.928a13.066 13.066 0 00-5.519-8.203l-3.1-2.086a3.115 3.115 0 00-3.952.404v-10.69a2.951 2.951 0 00-2.324-2.9 2.95 2.95 0 00-2.5.583 2.957 2.957 0 00-1.11 2.316V40.87a8.6 8.6 0 001.594 5.002l1.58 2.228a.885.885 0 001.236.21.888.888 0 00.21-1.237l-1.581-2.229a6.834 6.834 0 01-1.266-3.974V27.113c0-.364.163-.704.447-.932.284-.228.65-.314 1.006-.235.55.123.935.603.935 1.167v10.914c0 1.545.567 3.017 1.597 4.162.044.053.09.106.138.156L21.58 44.4l.912.972.01.009 1.367 1.457a.885.885 0 101.292-1.215c-.016-.017-1.053-1.123-2.238-2.383l-2.032-2.165-.015-.017a1.498 1.498 0 01.03-1.962 1.339 1.339 0 011.744-.223l3.1 2.087a11.3 11.3 0 014.773 7.094l1.451 6.928a.887.887 0 101.735-.364z" fill="url(#paint1_linear)"/><path d="M20.318 49.818l-.005-.008a.886.886 0 10-1.443 1.03l.006.009a.884.884 0 001.236.207.888.888 0 00.206-1.238z" fill="url(#paint2_linear)"/><path d="M58.012 24.797a2.95 2.95 0 00-2.5-.583 2.951 2.951 0 00-2.323 2.9v10.69a3.115 3.115 0 00-3.953-.404l-3.1 2.087a13.066 13.066 0 00-5.519 8.202l-1.451 6.928a.887.887 0 001.734.364l1.452-6.928a11.3 11.3 0 014.773-7.094l3.1-2.087a1.339 1.339 0 011.744.223c.5.564.506 1.39.031 1.96-.005.006-.01.013-.017.019l-4.27 4.549a.885.885 0 101.292 1.215c.012-.014 3.633-3.868 4.222-4.492a3.35 3.35 0 00.137-.157 6.203 6.203 0 001.597-4.162V27.113c0-.564.385-1.044.936-1.167.355-.079.722.007 1.006.235.284.228.447.568.447.932V40.87a6.834 6.834 0 01-1.266 3.974l-6.695 9.442a.888.888 0 00.722 1.401c.277 0 .55-.13.723-.373l6.695-9.442a8.6 8.6 0 001.593-5.002V27.113c0-.905-.405-1.75-1.11-2.316z" fill="url(#paint3_linear)"/><path d="M47.661 27.266l-1.576-.377v-.283a3.97 3.97 0 001.696-3.253V21.3c0-2.19-1.779-3.97-3.966-3.97-.981 0-1.88.359-2.573.952a5.183 5.183 0 00-4.793-3.23 5.183 5.183 0 00-4.796 3.237 3.945 3.945 0 00-2.582-.96 3.973 3.973 0 00-3.966 3.97v2.053a3.97 3.97 0 001.697 3.253v.283l-1.577.377a4.155 4.155 0 00-3.197 4.056v1.657c0 .49.397.887.886.887h4.072c-.006.107-.01.215-.01.325v3.19c0 .49.396.887.886.887h5.326a.887.887 0 000-1.775h-.915V34.66a.887.887 0 10-1.772 0v1.834h-1.753V34.19a3.672 3.672 0 012.823-3.584l2.431-.583 1.628 3.707c.141.322.46.53.81.53h.001c.351 0 .67-.208.811-.53l1.626-3.701 2.424.58a3.672 3.672 0 012.825 3.583v2.3h-1.752V34.66a.887.887 0 10-1.773 0v1.834h-1.004a.887.887 0 000 1.774h5.415c.49 0 .886-.397.886-.887v-3.188c0-.11-.004-.219-.01-.327h4.083c.49 0 .886-.397.886-.887v-1.657a4.155 4.155 0 00-3.197-4.056zm-3.846-8.161c1.161 0 2.114.907 2.19 2.05h-1.233a6.452 6.452 0 01-2.971-.724 2.197 2.197 0 012.014-1.326zm-2.194 4.118c.002-.043.004-.086.004-.13v-.79a8.223 8.223 0 003.147.627h1.237v.423a2.198 2.198 0 01-2.194 2.196 2.197 2.197 0 01-2.194-2.196v-.13zm-8.576-2.988a3.41 3.41 0 013.404-3.407 3.41 3.41 0 013.36 2.866l-1.491-.878a.885.885 0 00-1.128.196 3.816 3.816 0 01-2.934 1.37h-1.21v-.147zm-3.974-1.13c.901 0 1.677.546 2.014 1.326a6.452 6.452 0 01-2.97.725h-1.233a2.198 2.198 0 012.19-2.051zm-2.193 3.825h1.236a8.223 8.223 0 003.151-.628v1.05a2.197 2.197 0 01-2.194 2.197 2.197 2.197 0 01-2.193-2.196v-.423zm4.28 5.952a5.436 5.436 0 00-3.766 3.21h-3.591v-.77c0-1.113.755-2.071 1.836-2.33l2.257-.54a.887.887 0 00.68-.863v-.298a3.982 3.982 0 00.99 0v.294a.887.887 0 00.72.872l1.322.317-.448.108zm2.472-1.377a4.236 4.236 0 00-.71-.24l-1.583-.38v-.276c.286-.2.544-.436.768-.703a5.22 5.22 0 001.525 1.53v.069zm3.848 1.303l-1.037 2.361-1.04-2.367v-.633a5.176 5.176 0 002.077.003v.636zm-1.03-2.307a3.41 3.41 0 01-3.403-3.408v-.936h1.211a5.58 5.58 0 003.766-1.457l1.827 1.075v1.448a3.409 3.409 0 01-3.4 3.278zm2.803 1.006v-.06a5.217 5.217 0 001.537-1.533c.222.263.478.497.761.695v.276l-1.583.38c-.247.06-.486.14-.715.242zm9.835 4.585h-3.604a5.436 5.436 0 00-3.768-3.208l-.445-.107 1.329-.319a.884.884 0 00.723-.894v-.272a3.982 3.982 0 00.991 0v.297c0 .411.282.768.68.863l2.257.54a2.387 2.387 0 011.837 2.33v.77z" fill="url(#paint4_linear)"/><path d="M37.063 36.753a.89.89 0 00-1.512.628.89.89 0 00.886.887c.233 0 .46-.095.626-.26a.896.896 0 00.26-.627.896.896 0 00-.26-.628z" fill="url(#paint5_linear)"/><path d="M36.437 10.263a.887.887 0 00-.886.887v1.327a.887.887 0 101.772 0V11.15a.887.887 0 00-.886-.887z" fill="url(#paint6_linear)"/><path d="M33.172 13.156l-.93-.93a.885.885 0 10-1.252 1.255l.93.93a.883.883 0 001.253 0 .888.888 0 000-1.255z" fill="url(#paint7_linear)"/><path d="M41.862 12.249a.885.885 0 00-1.253 0l-.922.925a.888.888 0 00.627 1.514.883.883 0 00.627-.26l.922-.925a.888.888 0 000-1.254z" fill="url(#paint8_linear)"/></g><defs><linearGradient id="paint0_linear" x1="23.649" y1="51.287" x2="19.403" y2="53.481" gradientUnits="userSpaceOnUse"><stop stop-color="#FED230"/><stop offset="1" stop-color="#FE8730"/></linearGradient><linearGradient id="paint1_linear" x1="33.728" y1="17.727" x2="3.603" y2="29.327" gradientUnits="userSpaceOnUse"><stop stop-color="#FED230"/><stop offset="1" stop-color="#FE8730"/></linearGradient><linearGradient id="paint2_linear" x1="20.483" y1="49.076" x2="18.232" y2="50.441" gradientUnits="userSpaceOnUse"><stop stop-color="#FED230"/><stop offset="1" stop-color="#FE8730"/></linearGradient><linearGradient id="paint3_linear" x1="59.122" y1="17.727" x2="28.997" y2="29.327" gradientUnits="userSpaceOnUse"><stop stop-color="#FED230"/><stop offset="1" stop-color="#FE8730"/></linearGradient><linearGradient id="paint4_linear" x1="50.858" y1="10.332" x2="19.064" y2="34.342" gradientUnits="userSpaceOnUse"><stop stop-color="#FED230"/><stop offset="1" stop-color="#FE8730"/></linearGradient><linearGradient id="paint5_linear" x1="37.323" y1="36.133" x2="35.081" y2="37.495" gradientUnits="userSpaceOnUse"><stop stop-color="#FED230"/><stop offset="1" stop-color="#FE8730"/></linearGradient><linearGradient id="paint6_linear" x1="37.323" y1="9.632" x2="34.584" y2="10.583" gradientUnits="userSpaceOnUse"><stop stop-color="#FED230"/><stop offset="1" stop-color="#FE8730"/></linearGradient><linearGradient id="paint7_linear" x1="33.432" y1="11.416" x2="30.015" y2="13.492" gradientUnits="userSpaceOnUse"><stop stop-color="#FED230"/><stop offset="1" stop-color="#FE8730"/></linearGradient><linearGradient id="paint8_linear" x1="42.122" y1="11.44" x2="38.713" y2="13.51" gradientUnits="userSpaceOnUse"><stop stop-color="#FED230"/><stop offset="1" stop-color="#FE8730"/></linearGradient><filter id="filter0_d" x=".512" y=".805" width="71.851" height="71.905" filterUnits="userSpaceOnUse" color-interpolation-filters="sRGB"><feFlood flood-opacity="0" result="BackgroundImageFix"/><feColorMatrix in="SourceAlpha" values="0 0 0 0 0 0 0 0 0 0 0 0 0 0 0 0 0 0 127 0"/><feOffset dy="3.783"/><feGaussianBlur stdDeviation="6.62"/><feColorMatrix values="0 0 0 0 0.996078 0 0 0 0 0.823529 0 0 0 0 0.188235 0 0 0 0.4 0"/><feBlend in2="BackgroundImageFix" result="effect1_dropShadow"/><feBlend in="SourceGraphic" in2="effect1_dropShadow" result="shape"/></filter></defs></svg>