<svg width="61" height="73" fill="none" xmlns="http://www.w3.org/2000/svg"><g filter="url(#filter0_d)"><path d="M46.836 22.053a.882.882 0 00-.377-.718L30.797 10.42a.877.877 0 00-1.004 0L14.132 21.335a.881.881 0 00-.378.722V43.89l.001.02a.881.881 0 00.377.704L29.793 55.53a.877.877 0 001.004 0l15.662-10.915a.88.88 0 00.376-.704l.001-.02V22.053zM21.009 47.259l-5.496-3.83v-8.767l5.496 3.83v8.767zm0-10.915l-5.496-3.83v-8.768l5.499 3.833-.003 8.765zM16.175 22.06l14.12-9.84 14.12 9.84-6.289 4.384-7.33-5.108a.876.876 0 00-1.003 0l-7.329 5.108-6.29-4.384zm14.12 11.99l6.29 4.383-6.29 4.384-6.29-4.384 6.29-4.384zm-7.527 3.097V28.38l6.648-4.634v8.767l-6.648 4.633zm8.406-4.633v-8.767l6.648 4.634v8.766l-6.648-4.633zM45.077 43.43l-14.782 10.3-7.527-5.245v-8.767l7.025 4.896a.876.876 0 001.004 0l7.82-5.451.01-.006 6.45-4.495v8.767zm0-10.916l-5.496 3.831-.003-8.765 5.5-3.833v8.767z" fill="url(#paint0_linear)"/></g><defs><linearGradient id="paint0_linear" x1="46.836" y1="1.024" x2="-1.06" y2="22.235" gradientUnits="userSpaceOnUse"><stop stop-color="#FED230"/><stop offset="1" stop-color="#FE8730"/></linearGradient><filter id="filter0_d" x=".513" y=".805" width="59.564" height="71.906" filterUnits="userSpaceOnUse" color-interpolation-filters="sRGB"><feFlood flood-opacity="0" result="BackgroundImageFix"/><feColorMatrix in="SourceAlpha" values="0 0 0 0 0 0 0 0 0 0 0 0 0 0 0 0 0 0 127 0"/><feOffset dy="3.783"/><feGaussianBlur stdDeviation="6.62"/><feColorMatrix values="0 0 0 0 0.996078 0 0 0 0 0.823529 0 0 0 0 0.188235 0 0 0 0.4 0"/><feBlend in2="BackgroundImageFix" result="effect1_dropShadow"/><feBlend in="SourceGraphic" in2="effect1_dropShadow" result="shape"/></filter></defs></svg>