<svg width="67" height="73" fill="none" xmlns="http://www.w3.org/2000/svg"><g filter="url(#filter0_d)"><path d="M33.603 17.94l-.175.002c-6.72.094-12.168 5.686-12.147 12.465a12.38 12.38 0 001.323 5.565c2.092 4.166 3.066 7.548 3.066 10.642v.234c0 .091.014.18.039.263v.003l.003.009 1.244 4.141a.905.905 0 00.866.648h1.156l.925 3.124a.905.905 0 00.867.65h5.666c.4 0 .752-.264.867-.65l.925-3.124h1.156c.398 0 .75-.263.865-.648l1.245-4.142.002-.008.001-.002v-.001a.916.916 0 00.039-.263v-.286c0-3.708 1.517-7.37 3.157-10.774a12.395 12.395 0 001.232-5.421c0-6.852-5.528-12.426-12.322-12.426zm2.16 35.923h-4.32l-.578-1.951h5.475l-.578 1.95zm2.95-3.775h-10.22l-.7-2.328h11.62l-.7 2.328zm-8.102-11.964l-.728-5.192.848.788a.902.902 0 001.283-.06l1.588-1.77 1.59 1.77a.902.902 0 001.282.06l.849-.788-.729 5.192h-5.983zm5.925 1.824v5.988H30.67v-5.988h5.867zm6.53-4.956c-1.645 3.415-3.174 7.095-3.326 10.944h-1.395l-.027-7.117 1.15-8.16a.91.91 0 00-.769-1.03.896.896 0 00-.739.232l-2.04 1.894-1.647-1.835a.901.901 0 00-1.341 0l-1.647 1.835-2.04-1.894a.899.899 0 00-1.278.053.915.915 0 00-.23.746l1.15 8.16-.027 7.116h-1.396c-.129-3.2-1.17-6.65-3.247-10.788a10.56 10.56 0 01-1.127-4.747c-.018-5.784 4.63-10.555 10.363-10.635 5.867-.08 10.663 4.704 10.663 10.6a10.57 10.57 0 01-1.05 4.626z" fill="url(#paint0_linear)"/><path d="M18.722 30.28a.908.908 0 00-.904-.912h-3.16c-.5 0-.905.409-.905.912 0 .504.405.912.904.912h3.161c.5 0 .904-.408.904-.912z" fill="url(#paint1_linear)"/><path d="M52.547 29.369h-3.161c-.5 0-.905.408-.905.911 0 .504.405.912.905.912h3.16c.5 0 .905-.408.905-.912a.908.908 0 00-.904-.912z" fill="url(#paint2_linear)"/><path d="M16.743 21.517l2.738 1.594a.902.902 0 001.235-.334.916.916 0 00-.331-1.245l-2.738-1.594a.9.9 0 00-1.235.333.916.916 0 00.331 1.246z" fill="url(#paint3_linear)"/><path d="M50.461 39.043l-2.737-1.593a.9.9 0 00-1.235.333.916.916 0 00.33 1.246l2.738 1.594a.902.902 0 001.235-.334.916.916 0 00-.33-1.246z" fill="url(#paint4_linear)"/><path d="M24.927 16.95a.903.903 0 001.235.335.916.916 0 00.331-1.246l-1.58-2.76a.9.9 0 00-1.235-.334.916.916 0 00-.331 1.245l1.58 2.76z" fill="url(#paint5_linear)"/><path d="M33.602 15.274c.5 0 .905-.408.905-.912v-3.187a.908.908 0 00-.904-.912c-.5 0-.905.408-.905.912v3.187c0 .504.405.912.904.912z" fill="url(#paint6_linear)"/><path d="M41.042 17.285a.903.903 0 001.235-.334l1.58-2.76a.916.916 0 00-.33-1.246.9.9 0 00-1.235.334l-1.58 2.76a.916.916 0 00.33 1.246z" fill="url(#paint7_linear)"/><path d="M47.273 23.233c.154 0 .31-.04.452-.122l2.737-1.594a.916.916 0 00.331-1.245.9.9 0 00-1.235-.334l-2.738 1.594a.916.916 0 00-.33 1.245.902.902 0 00.783.456z" fill="url(#paint8_linear)"/><path d="M19.48 37.45l-2.737 1.593a.916.916 0 00-.33 1.246.902.902 0 001.235.334l2.737-1.594a.916.916 0 00.33-1.246.9.9 0 00-1.234-.334z" fill="url(#paint9_linear)"/></g><defs><linearGradient id="paint0_linear" x1="45.925" y1="10.264" x2="9.059" y2="24.899" gradientUnits="userSpaceOnUse"><stop stop-color="#FED230"/><stop offset="1" stop-color="#FE8730"/></linearGradient><linearGradient id="paint1_linear" x1="18.722" y1="28.998" x2="16.424" y2="32.805" gradientUnits="userSpaceOnUse"><stop stop-color="#FED230"/><stop offset="1" stop-color="#FE8730"/></linearGradient><linearGradient id="paint2_linear" x1="53.451" y1="28.998" x2="51.153" y2="32.805" gradientUnits="userSpaceOnUse"><stop stop-color="#FED230"/><stop offset="1" stop-color="#FE8730"/></linearGradient><linearGradient id="paint3_linear" x1="20.837" y1="19.12" x2="16.078" y2="22.97" gradientUnits="userSpaceOnUse"><stop stop-color="#FED230"/><stop offset="1" stop-color="#FE8730"/></linearGradient><linearGradient id="paint4_linear" x1="50.913" y1="36.632" x2="46.154" y2="40.481" gradientUnits="userSpaceOnUse"><stop stop-color="#FED230"/><stop offset="1" stop-color="#FE8730"/></linearGradient><linearGradient id="paint5_linear" x1="26.615" y1="11.89" x2="21.732" y2="14.085" gradientUnits="userSpaceOnUse"><stop stop-color="#FED230"/><stop offset="1" stop-color="#FE8730"/></linearGradient><linearGradient id="paint6_linear" x1="34.507" y1="9.244" x2="31.519" y2="9.899" gradientUnits="userSpaceOnUse"><stop stop-color="#FED230"/><stop offset="1" stop-color="#FE8730"/></linearGradient><linearGradient id="paint7_linear" x1="43.979" y1="11.89" x2="39.096" y2="14.085" gradientUnits="userSpaceOnUse"><stop stop-color="#FED230"/><stop offset="1" stop-color="#FE8730"/></linearGradient><linearGradient id="paint8_linear" x1="50.914" y1="19.12" x2="46.155" y2="22.97" gradientUnits="userSpaceOnUse"><stop stop-color="#FED230"/><stop offset="1" stop-color="#FE8730"/></linearGradient><linearGradient id="paint9_linear" x1="20.837" y1="36.632" x2="16.078" y2="40.481" gradientUnits="userSpaceOnUse"><stop stop-color="#FED230"/><stop offset="1" stop-color="#FE8730"/></linearGradient><filter id="filter0_d" x=".512" y=".805" width="66.18" height="71.906" filterUnits="userSpaceOnUse" color-interpolation-filters="sRGB"><feFlood flood-opacity="0" result="BackgroundImageFix"/><feColorMatrix in="SourceAlpha" values="0 0 0 0 0 0 0 0 0 0 0 0 0 0 0 0 0 0 127 0"/><feOffset dy="3.783"/><feGaussianBlur stdDeviation="6.62"/><feColorMatrix values="0 0 0 0 0.996078 0 0 0 0 0.823529 0 0 0 0 0.188235 0 0 0 0.4 0"/><feBlend in2="BackgroundImageFix" result="effect1_dropShadow"/><feBlend in="SourceGraphic" in2="effect1_dropShadow" result="shape"/></filter></defs></svg>