<svg width="67" height="73" fill="none" xmlns="http://www.w3.org/2000/svg"><g filter="url(#filter0_d)" fill-rule="evenodd" clip-rule="evenodd"><path d="M52.796 28.599H22.564l29.038-8.422a.888.888 0 00.605-1.1l-1.52-5.251a4.961 4.961 0 00-4.744-3.563c-.46 0-.92.065-1.365.194l-27.264 7.907a4.899 4.899 0 00-2.943 2.363 4.908 4.908 0 00-.421 3.753l1.484 5.132v21.137a4.94 4.94 0 004.931 4.937h10.648a.887.887 0 000-1.774H20.366a3.165 3.165 0 01-3.16-3.163V38.676H51.91v12.073a3.165 3.165 0 01-3.16 3.163H38.103a.887.887 0 000 1.774h10.649a4.94 4.94 0 004.931-4.937V29.486a.887.887 0 00-.886-.887zM37.17 36.9l3.765-6.528h4.897L42.067 36.9H37.17zm-6.944 0l3.765-6.528h4.897L35.123 36.9h-4.897zm-6.943 0l3.764-6.528h4.898L28.179 36.9h-4.896zm3.294-11.485l-6.305-6.063 4.724-1.37a.878.878 0 00.117.137l6.304 6.063-4.723 1.37a.88.88 0 00-.117-.137zm11.874-11.164l6.305 6.062-4.724 1.37a.865.865 0 00-.116-.136l-6.305-6.063 4.724-1.37a.884.884 0 00.116.137zm-6.67 1.934l6.305 6.063-4.723 1.37a.865.865 0 00-.117-.137l-6.304-6.063 4.723-1.37a.945.945 0 00.117.137zm13.29-4.024a3.13 3.13 0 01.87-.125 3.18 3.18 0 013.043 2.282l1.273 4.4-3.555 1.031a.903.903 0 00-.117-.137l-6.304-6.062 4.79-1.39zm-29.149 9.421a3.137 3.137 0 011.884-1.514l.52-.151a.904.904 0 00.117.137l6.305 6.062-7.824 2.27-1.273-4.4a3.144 3.144 0 01.271-2.404zm1.283 8.79h7.796L21.236 36.9h-4.03v-6.528zM44.113 36.9l3.765-6.528h4.03V36.9h-7.795z" fill="url(#paint0_linear)"/><path d="M40.684 46.203a.887.887 0 00-.443-.768l-7.785-4.5a.886.886 0 00-1.329.768v9a.887.887 0 001.33.768l7.784-4.5a.887.887 0 00.443-.767zM32.9 49.167V43.24l5.127 2.963-5.127 2.964z" fill="url(#paint1_linear)"/><path d="M34.557 53.912a.888.888 0 000 1.775.888.888 0 000-1.775z" fill="url(#paint2_linear)"/></g><defs><linearGradient id="paint0_linear" x1="53.682" y1="1.024" x2="-.099" y2="29.77" gradientUnits="userSpaceOnUse"><stop stop-color="#FED230"/><stop offset="1" stop-color="#FE8730"/></linearGradient><linearGradient id="paint1_linear" x1="40.684" y1="38.625" x2="27.863" y2="45.541" gradientUnits="userSpaceOnUse"><stop stop-color="#FED230"/><stop offset="1" stop-color="#FE8730"/></linearGradient><linearGradient id="paint2_linear" x1="35.443" y1="53.551" x2="33.201" y2="54.913" gradientUnits="userSpaceOnUse"><stop stop-color="#FED230"/><stop offset="1" stop-color="#FE8730"/></linearGradient><filter id="filter0_d" x=".505" y=".799" width="66.425" height="71.921" filterUnits="userSpaceOnUse" color-interpolation-filters="sRGB"><feFlood flood-opacity="0" result="BackgroundImageFix"/><feColorMatrix in="SourceAlpha" values="0 0 0 0 0 0 0 0 0 0 0 0 0 0 0 0 0 0 127 0"/><feOffset dy="3.785"/><feGaussianBlur stdDeviation="6.624"/><feColorMatrix values="0 0 0 0 0.996078 0 0 0 0 0.823529 0 0 0 0 0.188235 0 0 0 0.4 0"/><feBlend in2="BackgroundImageFix" result="effect1_dropShadow"/><feBlend in="SourceGraphic" in2="effect1_dropShadow" result="shape"/></filter></defs></svg>