<svg width="76" height="76" fill="none" xmlns="http://www.w3.org/2000/svg"><g filter="url(#filter0_d)"><path d="M43.951 34.956h.051a.956.956 0 000-1.912h-.05a.956.956 0 000 1.912z" fill="url(#paint0_linear)"/><g filter="url(#filter1_d)"><path d="M61.998 33.964a.952.952 0 00-.278-.715l-4.324-4.324a.956.956 0 00-1.352 1.353l2.766 2.766h-6.151c-.474-7.34-6.363-13.229-13.703-13.703v-6.15l2.766 2.765a.954.954 0 001.352 0 .956.956 0 000-1.352L38.75 10.28a.953.953 0 00-.713-.278L38 10l-.037.002a.953.953 0 00-.714.278l-4.324 4.324a.956.956 0 001.353 1.352l2.766-2.766v6.15c-7.34.475-13.23 6.363-13.703 13.704h-6.126l2.767-2.766a.956.956 0 00-1.353-1.353l-4.349 4.35a.953.953 0 00-.279.701L14 34l.002.036a.953.953 0 00.278.715l4.324 4.324a.953.953 0 001.352 0 .956.956 0 000-1.353l-2.766-2.766h6.15c.475 7.34 6.363 13.229 13.704 13.703v3.552a.956.956 0 101.912 0V48.66c7.34-.474 13.229-6.363 13.703-13.703h6.15l-2.766 2.766a.956.956 0 001.353 1.352l4.323-4.323a.953.953 0 00.279-.715L62 34l-.002-.036zM37.044 21.257v3.187c-4.534.45-8.15 4.066-8.6 8.6h-3.187c.467-6.286 5.501-11.32 11.787-11.787zm0 25.486c-6.286-.467-11.32-5.501-11.787-11.787h3.187c.45 4.534 4.066 8.15 8.6 8.6v3.187zM38 38.995a.956.956 0 00-.956.957v1.678a7.704 7.704 0 01-6.674-6.674h1.678a.956.956 0 000-1.912H30.37a7.704 7.704 0 016.674-6.674v1.678a.956.956 0 101.912 0V26.37c3.791.472 6.735 3.713 6.735 7.63s-2.944 7.157-6.735 7.63v-1.678a.956.956 0 00-.956-.956zm11.293-4.039h1.45c-.467 6.286-5.501 11.32-11.787 11.787v-3.187c4.848-.481 8.648-4.583 8.648-9.556 0-4.973-3.8-9.075-8.648-9.556v-3.187c6.285.467 11.32 5.501 11.787 11.787h-1.45a.956.956 0 100 1.912z" fill="url(#paint1_linear)"/></g><path d="M41.722 52.044L38 55.766l-3.722-3.722a.957.957 0 00-1.352 1.352l4.323 4.324a.954.954 0 00.751.276c.025.002.05.004.075.004a.953.953 0 00.676-.28l4.324-4.324a.957.957 0 00-1.353-1.352z" fill="url(#paint2_linear)"/></g><defs><linearGradient id="paint0_linear" x1="44.958" y1="32.655" x2="42.512" y2="34.182" gradientUnits="userSpaceOnUse"><stop stop-color="#FED230"/><stop offset="1" stop-color="#FE8730"/></linearGradient><linearGradient id="paint1_linear" x1="62" y1="1.22" x2="4.955" y2="39.79" gradientUnits="userSpaceOnUse"><stop stop-color="#FED230"/><stop offset="1" stop-color="#FE8730"/></linearGradient><linearGradient id="paint2_linear" x1="43.355" y1="50.495" x2="34.483" y2="59.759" gradientUnits="userSpaceOnUse"><stop stop-color="#FED230"/><stop offset="1" stop-color="#FE8730"/></linearGradient><filter id="filter0_d" x="0" y="0" width="76" height="76" filterUnits="userSpaceOnUse" color-interpolation-filters="sRGB"><feFlood flood-opacity="0" result="BackgroundImageFix"/><feColorMatrix in="SourceAlpha" values="0 0 0 0 0 0 0 0 0 0 0 0 0 0 0 0 0 0 127 0"/><feOffset dy="4"/><feGaussianBlur stdDeviation="7"/><feColorMatrix values="0 0 0 0 0.996078 0 0 0 0 0.823529 0 0 0 0 0.188235 0 0 0 0.4 0"/><feBlend in2="BackgroundImageFix" result="effect1_dropShadow"/><feBlend in="SourceGraphic" in2="effect1_dropShadow" result="shape"/></filter><filter id="filter1_d" x="0" y="0" width="76" height="71.167" filterUnits="userSpaceOnUse" color-interpolation-filters="sRGB"><feFlood flood-opacity="0" result="BackgroundImageFix"/><feColorMatrix in="SourceAlpha" values="0 0 0 0 0 0 0 0 0 0 0 0 0 0 0 0 0 0 127 0"/><feOffset dy="4"/><feGaussianBlur stdDeviation="7"/><feColorMatrix values="0 0 0 0 0.996078 0 0 0 0 0.823529 0 0 0 0 0.188235 0 0 0 0.4 0"/><feBlend in2="BackgroundImageFix" result="effect1_dropShadow"/><feBlend in="SourceGraphic" in2="effect1_dropShadow" result="shape"/></filter></defs></svg>