<svg width="73" height="73" fill="none" xmlns="http://www.w3.org/2000/svg"><g filter="url(#filter0_d)"><path d="M52.48 16.915a22.524 22.524 0 00-16.041-6.652 22.518 22.518 0 00-16.04 6.652 22.577 22.577 0 00-6.645 16.06c0 6.066 2.36 11.77 6.644 16.06 4.285 4.289 9.982 6.651 16.04 6.651 6.06 0 11.757-2.362 16.042-6.652a22.577 22.577 0 006.644-16.06c0-6.066-2.36-11.77-6.644-16.06zM36.439 53.877c-11.512 0-20.878-9.377-20.878-20.902 0-11.526 9.366-20.903 20.878-20.903s20.877 9.377 20.877 20.903c0 11.525-9.365 20.902-20.877 20.902z" fill="url(#paint0_linear)"/><path d="M36.439 13.829c-10.544 0-19.123 8.588-19.123 19.145S25.895 52.12 36.44 52.12s19.123-8.59 19.123-19.146c0-10.557-8.579-19.145-19.123-19.145zm15.425 27.017l-2.606-1.507a.903.903 0 10-.904 1.567l2.603 1.505a17.466 17.466 0 01-5.092 5.098l-1.503-2.606a.903.903 0 10-1.566.905l1.505 2.61a17.177 17.177 0 01-6.958 1.868v-3.015a.904.904 0 10-1.808 0v3.015a17.176 17.176 0 01-6.958-1.869l1.505-2.61a.905.905 0 00-1.565-.904l-1.503 2.606a17.465 17.465 0 01-5.093-5.098l2.604-1.505a.905.905 0 00-.904-1.567l-2.607 1.507a17.227 17.227 0 01-1.866-6.967h3.011a.904.904 0 000-1.81h-3.011a17.227 17.227 0 011.866-6.966l2.606 1.506a.903.903 0 001.235-.331.905.905 0 00-.33-1.236l-2.604-1.504a17.463 17.463 0 015.092-5.099l1.503 2.606a.903.903 0 101.566-.905l-1.505-2.609a17.175 17.175 0 016.958-1.869v3.015a.904.904 0 101.808 0v-3.015c2.494.13 4.85.79 6.958 1.869l-1.505 2.61a.905.905 0 00.782 1.357.903.903 0 00.783-.453l1.503-2.606a17.462 17.462 0 015.093 5.098l-2.603 1.505a.905.905 0 00.903 1.567l2.607-1.506a17.227 17.227 0 011.866 6.966h-3.01a.904.904 0 000 1.81h3.011a17.222 17.222 0 01-1.866 6.967z" fill="url(#paint1_linear)"/><path d="M37.341 30.455V24.65a.904.904 0 10-1.807 0v5.805a2.681 2.681 0 00-1.77 2.52c0 .658.239 1.26.634 1.727l-1.435 2.488a.905.905 0 00.782 1.358.903.903 0 00.783-.453l1.434-2.487a2.678 2.678 0 001.379-5.153zm-.904 3.387a.868.868 0 010-1.735.868.868 0 010 1.735z" fill="url(#paint2_linear)"/><path d="M36.437 20.76c-.5 0-.904.404-.904.904v.362a.904.904 0 101.808 0v-.362c0-.5-.405-.905-.904-.905z" fill="url(#paint3_linear)"/></g><defs><linearGradient id="paint0_linear" x1="59.124" y1="1.024" x2="1.727" y2="35.884" gradientUnits="userSpaceOnUse"><stop stop-color="#FED230"/><stop offset="1" stop-color="#FE8730"/></linearGradient><linearGradient id="paint1_linear" x1="55.562" y1="6.041" x2="7.178" y2="35.427" gradientUnits="userSpaceOnUse"><stop stop-color="#FED230"/><stop offset="1" stop-color="#FE8730"/></linearGradient><linearGradient id="paint2_linear" x1="39.111" y1="20.735" x2="28.93" y2="23.357" gradientUnits="userSpaceOnUse"><stop stop-color="#FED230"/><stop offset="1" stop-color="#FE8730"/></linearGradient><linearGradient id="paint3_linear" x1="37.341" y1="20.318" x2="34.849" y2="21.579" gradientUnits="userSpaceOnUse"><stop stop-color="#FED230"/><stop offset="1" stop-color="#FE8730"/></linearGradient><filter id="filter0_d" x=".513" y=".805" width="71.852" height="71.906" filterUnits="userSpaceOnUse" color-interpolation-filters="sRGB"><feFlood flood-opacity="0" result="BackgroundImageFix"/><feColorMatrix in="SourceAlpha" values="0 0 0 0 0 0 0 0 0 0 0 0 0 0 0 0 0 0 127 0"/><feOffset dy="3.783"/><feGaussianBlur stdDeviation="6.62"/><feColorMatrix values="0 0 0 0 0.996078 0 0 0 0 0.823529 0 0 0 0 0.188235 0 0 0 0.4 0"/><feBlend in2="BackgroundImageFix" result="effect1_dropShadow"/><feBlend in="SourceGraphic" in2="effect1_dropShadow" result="shape"/></filter></defs></svg>