<svg width="16" height="15" fill="none" xmlns="http://www.w3.org/2000/svg"><path opacity=".4" d="M14.997 1.07c-.682-.364-1.444.339-1.89.755-1.023.99-1.89 2.135-2.86 3.176-1.077 1.145-2.074 2.29-3.177 3.41-.63.625-1.312 1.302-1.732 2.082-.945-.91-1.759-1.9-2.809-2.707-.76-.572-2.02-.989-1.994.39.052 1.797 1.653 3.723 2.834 4.947.499.52 1.155 1.067 1.916 1.093.92.052 1.864-1.041 2.415-1.64.971-1.041 1.759-2.213 2.651-3.28 1.155-1.406 2.336-2.785 3.465-4.217.709-.885 2.94-3.071 1.181-4.009z" fill="#4D4D4D"/></svg>