<svg width="16" height="14" fill="none" xmlns="http://www.w3.org/2000/svg"><path d="M15.301.107c-.722-.385-1.527.358-2 .798C12.22 1.95 11.304 3.16 10.276 4.26c-1.138 1.21-2.194 2.42-3.36 3.603-.666.66-1.388 1.375-1.833 2.2-1-.962-1.86-2.007-2.971-2.86-.805-.605-2.138-1.045-2.11.413C.055 9.515 1.75 11.55 3 12.843c.527.55 1.221 1.128 2.027 1.155.972.055 1.971-1.1 2.554-1.733 1.028-1.1 1.861-2.338 2.805-3.466 1.222-1.485 2.472-2.943 3.666-4.456.75-.935 3.11-3.246 1.25-4.236z" fill="#FED230"/></svg>