<svg width="24" height="24" fill="none" xmlns="http://www.w3.org/2000/svg"><path d="M20.667 0H3.333A3.337 3.337 0 000 3.333v17.334A3.337 3.337 0 003.333 24h17.334A3.337 3.337 0 0024 20.667V3.333A3.337 3.337 0 0020.667 0zm2 20.667a2 2 0 01-2 2H3.333a2 2 0 01-2-2V3.333a2 2 0 012-2h17.334a2 2 0 012 2v17.334z" fill="#4D4D4D"/><path d="M12 5.333a6.666 6.666 0 10-.001 13.332 6.666 6.666 0 000-13.332zm0 11.999a5.333 5.333 0 11-.001-10.666 5.333 5.333 0 010 10.666zm7.333-14.665a2 2 0 100 4 2 2 0 000-4zm0 2.667a.667.667 0 110-1.334.667.667 0 010 1.334z" fill="#4D4D4D"/></svg>