<svg width="24" height="24" fill="none" xmlns="http://www.w3.org/2000/svg"><path d="M23.59 7.338c-.056-1.25-.258-2.109-.547-2.853a5.74 5.74 0 00-1.36-2.086A5.79 5.79 0 0019.6 1.043c-.75-.29-1.604-.491-2.854-.547-1.259-.06-1.659-.073-4.852-.073C8.7.423 8.3.437 7.047.492c-1.25.055-2.11.257-2.854.546a5.74 5.74 0 00-2.086 1.36A5.791 5.791 0 00.75 4.48C.461 5.23.26 6.084.204 7.334.144 8.593.131 8.992.131 12.186c0 3.193.014 3.593.069 4.848.055 1.25.257 2.109.547 2.853a5.8 5.8 0 001.36 2.086 5.79 5.79 0 002.081 1.356c.75.29 1.604.491 2.854.546 1.254.056 1.654.07 4.848.07s3.593-.014 4.848-.07c1.25-.055 2.11-.257 2.854-.546a6.017 6.017 0 003.441-3.442c.29-.749.492-1.604.547-2.853.055-1.255.07-1.655.07-4.848 0-3.194-.006-3.593-.06-4.848zm-2.119 9.604c-.05 1.148-.244 1.769-.404 2.182a3.901 3.901 0 01-2.234 2.234c-.413.16-1.038.353-2.182.404-1.241.055-1.613.069-4.752.069-3.138 0-3.515-.014-4.751-.07-1.15-.05-1.77-.243-2.183-.403a3.618 3.618 0 01-1.35-.878 3.654 3.654 0 01-.879-1.351c-.16-.414-.354-1.039-.404-2.183-.055-1.24-.069-1.613-.069-4.75 0-3.14.014-3.516.07-4.752.05-1.149.242-1.77.403-2.183.189-.51.487-.974.883-1.35a3.64 3.64 0 011.35-.878c.414-.161 1.04-.354 2.183-.405 1.241-.055 1.613-.069 4.752-.069 3.143 0 3.515.014 4.751.07 1.149.05 1.77.243 2.183.404.51.188.974.487 1.35.877.392.382.69.841.879 1.351.16.414.353 1.039.404 2.183.055 1.24.069 1.613.069 4.751 0 3.139-.014 3.506-.069 4.747z" fill="#fff"/><path d="M11.894 6.145a6.044 6.044 0 00-6.042 6.042 6.044 6.044 0 006.042 6.043 6.044 6.044 0 006.043-6.043 6.044 6.044 0 00-6.043-6.042zm0 9.962a3.92 3.92 0 11.001-7.84 3.92 3.92 0 010 7.84zm7.692-10.202a1.41 1.41 0 11-2.82 0 1.41 1.41 0 012.82 0z" fill="#fff"/></svg>