<svg width="208" height="218" fill="none" xmlns="http://www.w3.org/2000/svg"><path opacity=".3" fill-rule="evenodd" clip-rule="evenodd" d="M81 162c44.735 0 81-36.265 81-81S125.735 0 81 0 0 36.265 0 81s36.265 81 81 81zm0-37c24.301 0 44-19.699 44-44 0-24.3-19.699-44-44-44-24.3 0-44 19.7-44 44 0 24.301 19.7 44 44 44z" fill="url(#paint0_linear)"/><path opacity=".3" fill-rule="evenodd" clip-rule="evenodd" d="M152.5 218c30.652 0 55.5-24.848 55.5-55.5S183.152 107 152.5 107 97 131.848 97 162.5s24.848 55.5 55.5 55.5zm0-32c12.979 0 23.5-10.521 23.5-23.5S165.479 139 152.5 139 129 149.521 129 162.5s10.521 23.5 23.5 23.5z" fill="url(#paint1_linear)"/><defs><linearGradient id="paint0_linear" x1="20" y1="38.5" x2="139" y2="127" gradientUnits="userSpaceOnUse"><stop stop-color="#FED230"/><stop offset="1" stop-color="#FED230" stop-opacity="0"/></linearGradient><linearGradient id="paint1_linear" x1="97" y1="162" x2="225.5" y2="173.5" gradientUnits="userSpaceOnUse"><stop stop-color="#FED230"/><stop offset="1" stop-color="#FED230" stop-opacity="0"/></linearGradient></defs></svg>