<svg width="26" height="26" fill="none" xmlns="http://www.w3.org/2000/svg"><path d="M24.372 19.515l-4.858-3.24a1.418 1.418 0 00-1.899.309l-1.415 1.82a.605.605 0 01-.775.163l-.27-.149c-.892-.486-2.002-1.092-4.24-3.33-2.236-2.237-2.843-3.349-3.33-4.24l-.147-.269a.606.606 0 01.16-.778l1.818-1.415a1.419 1.419 0 00.309-1.898L6.485 1.63a1.41 1.41 0 00-1.901-.428l-2.032 1.22a2.866 2.866 0 00-1.306 1.696C.514 6.783 1.064 11.383 7.84 18.16 13.23 23.55 17.244 25 20.002 25a7.082 7.082 0 001.88-.246 2.864 2.864 0 001.696-1.306l1.221-2.03a1.41 1.41 0 00-.427-1.903zm-.262 1.492l-1.218 2.031c-.27.461-.707.8-1.22.946-2.46.676-6.76.116-13.265-6.39C1.9 11.09 1.342 6.791 2.017 4.33a2.07 2.07 0 01.947-1.222l2.031-1.219a.612.612 0 01.826.186l1.76 2.642 1.476 2.216a.616.616 0 01-.133.823L7.105 9.171a1.4 1.4 0 00-.37 1.797l.144.262c.511.938 1.147 2.104 3.467 4.424 2.32 2.32 3.486 2.955 4.423 3.466l.263.145a1.4 1.4 0 001.796-.37l1.415-1.82a.616.616 0 01.824-.133l4.858 3.24a.612.612 0 01.185.825zM14.6 5.001a6.807 6.807 0 016.8 6.8.4.4 0 00.8 0 7.608 7.608 0 00-7.6-7.6.4.4 0 100 .8z" fill="#4D4D4D" stroke="#4D4D4D" stroke-width=".8"/><path d="M14.6 7.401a4.405 4.405 0 014.4 4.4.4.4 0 10.8 0 5.206 5.206 0 00-5.2-5.2.4.4 0 100 .8z" fill="#4D4D4D" stroke="#4D4D4D" stroke-width=".8"/><path d="M14.6 9.8a2.002 2.002 0 012 2 .4.4 0 10.8 0 2.803 2.803 0 00-2.8-2.799.4.4 0 100 .8z" fill="#4D4D4D" stroke="#4D4D4D" stroke-width=".8"/></svg>